<mxfile host="app.diagrams.net" modified="2020-11-29T08:32:45.669Z" agent="5.0 (X11; Linux x86_64) AppleWebKit/537.36 (KHTML, like Gecko) Chrome/87.0.4280.66 Safari/537.36" etag="m3vs51sU-S8bUvaaJ8Bi" version="13.10.4" type="github">
  <diagram id="R2lEEEUBdFMjLlhIrx00" name="Page-1">
    <mxGraphModel dx="1718" dy="435" grid="1" gridSize="10" guides="1" tooltips="1" connect="1" arrows="1" fold="1" page="1" pageScale="1" pageWidth="850" pageHeight="1100" math="0" shadow="0" extFonts="Permanent Marker^https://fonts.googleapis.com/css?family=Permanent+Marker">
      <root>
        <mxCell id="0" />
        <mxCell id="1" parent="0" />
        <mxCell id="rJFvrDT2o2Mf9lYH1WT6-1" value="`Admin`" style="shape=table;startSize=30;container=1;collapsible=1;childLayout=tableLayout;fixedRows=1;rowLines=0;fontStyle=1;align=center;resizeLast=1;" vertex="1" parent="1">
          <mxGeometry x="-720" y="40" width="240" height="160" as="geometry" />
        </mxCell>
        <mxCell id="rJFvrDT2o2Mf9lYH1WT6-2" value="" style="shape=partialRectangle;collapsible=0;dropTarget=0;pointerEvents=0;fillColor=none;points=[[0,0.5],[1,0.5]];portConstraint=eastwest;top=0;left=0;right=0;bottom=0;" vertex="1" parent="rJFvrDT2o2Mf9lYH1WT6-1">
          <mxGeometry y="30" width="240" height="30" as="geometry" />
        </mxCell>
        <mxCell id="rJFvrDT2o2Mf9lYH1WT6-3" value="" style="shape=partialRectangle;overflow=hidden;connectable=0;fillColor=none;top=0;left=0;bottom=0;right=0;" vertex="1" parent="rJFvrDT2o2Mf9lYH1WT6-2">
          <mxGeometry width="30" height="30" as="geometry" />
        </mxCell>
        <mxCell id="rJFvrDT2o2Mf9lYH1WT6-4" value="`admin_id` int(11) NOT NULL" style="shape=partialRectangle;overflow=hidden;connectable=0;fillColor=none;top=0;left=0;bottom=0;right=0;align=left;spacingLeft=6;" vertex="1" parent="rJFvrDT2o2Mf9lYH1WT6-2">
          <mxGeometry x="30" width="210" height="30" as="geometry" />
        </mxCell>
        <mxCell id="rJFvrDT2o2Mf9lYH1WT6-5" value="" style="shape=partialRectangle;collapsible=0;dropTarget=0;pointerEvents=0;fillColor=none;points=[[0,0.5],[1,0.5]];portConstraint=eastwest;top=0;left=0;right=0;bottom=0;" vertex="1" parent="rJFvrDT2o2Mf9lYH1WT6-1">
          <mxGeometry y="60" width="240" height="30" as="geometry" />
        </mxCell>
        <mxCell id="rJFvrDT2o2Mf9lYH1WT6-6" value="" style="shape=partialRectangle;overflow=hidden;connectable=0;fillColor=none;top=0;left=0;bottom=0;right=0;" vertex="1" parent="rJFvrDT2o2Mf9lYH1WT6-5">
          <mxGeometry width="30" height="30" as="geometry" />
        </mxCell>
        <mxCell id="rJFvrDT2o2Mf9lYH1WT6-7" value="`fullname` varchar(200) NOT NULL" style="shape=partialRectangle;overflow=hidden;connectable=0;fillColor=none;top=0;left=0;bottom=0;right=0;align=left;spacingLeft=6;" vertex="1" parent="rJFvrDT2o2Mf9lYH1WT6-5">
          <mxGeometry x="30" width="210" height="30" as="geometry" />
        </mxCell>
        <mxCell id="rJFvrDT2o2Mf9lYH1WT6-8" value="" style="shape=partialRectangle;collapsible=0;dropTarget=0;pointerEvents=0;fillColor=none;points=[[0,0.5],[1,0.5]];portConstraint=eastwest;top=0;left=0;right=0;bottom=0;" vertex="1" parent="rJFvrDT2o2Mf9lYH1WT6-1">
          <mxGeometry y="90" width="240" height="30" as="geometry" />
        </mxCell>
        <mxCell id="rJFvrDT2o2Mf9lYH1WT6-9" value="" style="shape=partialRectangle;overflow=hidden;connectable=0;fillColor=none;top=0;left=0;bottom=0;right=0;" vertex="1" parent="rJFvrDT2o2Mf9lYH1WT6-8">
          <mxGeometry width="30" height="30" as="geometry" />
        </mxCell>
        <mxCell id="rJFvrDT2o2Mf9lYH1WT6-10" value="`email` varchar(200) NOT NULL" style="shape=partialRectangle;overflow=hidden;connectable=0;fillColor=none;top=0;left=0;bottom=0;right=0;align=left;spacingLeft=6;" vertex="1" parent="rJFvrDT2o2Mf9lYH1WT6-8">
          <mxGeometry x="30" width="210" height="30" as="geometry" />
        </mxCell>
        <mxCell id="rJFvrDT2o2Mf9lYH1WT6-11" value="" style="shape=partialRectangle;collapsible=0;dropTarget=0;pointerEvents=0;fillColor=none;points=[[0,0.5],[1,0.5]];portConstraint=eastwest;top=0;left=0;right=0;bottom=0;" vertex="1" parent="rJFvrDT2o2Mf9lYH1WT6-1">
          <mxGeometry y="120" width="240" height="30" as="geometry" />
        </mxCell>
        <mxCell id="rJFvrDT2o2Mf9lYH1WT6-12" value="" style="shape=partialRectangle;overflow=hidden;connectable=0;fillColor=none;top=0;left=0;bottom=0;right=0;" vertex="1" parent="rJFvrDT2o2Mf9lYH1WT6-11">
          <mxGeometry width="30" height="30" as="geometry" />
        </mxCell>
        <mxCell id="rJFvrDT2o2Mf9lYH1WT6-13" value="`password` varchar(100) NOT NULL" style="shape=partialRectangle;overflow=hidden;connectable=0;fillColor=none;top=0;left=0;bottom=0;right=0;align=left;spacingLeft=6;" vertex="1" parent="rJFvrDT2o2Mf9lYH1WT6-11">
          <mxGeometry x="30" width="210" height="30" as="geometry" />
        </mxCell>
        <mxCell id="rJFvrDT2o2Mf9lYH1WT6-14" value="`Contacts`" style="shape=table;startSize=30;container=1;collapsible=1;childLayout=tableLayout;fixedRows=1;rowLines=0;fontStyle=1;align=center;resizeLast=1;" vertex="1" parent="1">
          <mxGeometry x="-440" y="40" width="240" height="190" as="geometry" />
        </mxCell>
        <mxCell id="rJFvrDT2o2Mf9lYH1WT6-15" value="" style="shape=partialRectangle;collapsible=0;dropTarget=0;pointerEvents=0;fillColor=none;points=[[0,0.5],[1,0.5]];portConstraint=eastwest;top=0;left=0;right=0;bottom=0;" vertex="1" parent="rJFvrDT2o2Mf9lYH1WT6-14">
          <mxGeometry y="30" width="240" height="30" as="geometry" />
        </mxCell>
        <mxCell id="rJFvrDT2o2Mf9lYH1WT6-16" value="" style="shape=partialRectangle;overflow=hidden;connectable=0;fillColor=none;top=0;left=0;bottom=0;right=0;" vertex="1" parent="rJFvrDT2o2Mf9lYH1WT6-15">
          <mxGeometry width="30" height="30" as="geometry" />
        </mxCell>
        <mxCell id="rJFvrDT2o2Mf9lYH1WT6-17" value="`contact_id` int(11) NOT NULL" style="shape=partialRectangle;overflow=hidden;connectable=0;fillColor=none;top=0;left=0;bottom=0;right=0;align=left;spacingLeft=6;" vertex="1" parent="rJFvrDT2o2Mf9lYH1WT6-15">
          <mxGeometry x="30" width="210" height="30" as="geometry" />
        </mxCell>
        <mxCell id="rJFvrDT2o2Mf9lYH1WT6-18" value="" style="shape=partialRectangle;collapsible=0;dropTarget=0;pointerEvents=0;fillColor=none;points=[[0,0.5],[1,0.5]];portConstraint=eastwest;top=0;left=0;right=0;bottom=0;" vertex="1" parent="rJFvrDT2o2Mf9lYH1WT6-14">
          <mxGeometry y="60" width="240" height="30" as="geometry" />
        </mxCell>
        <mxCell id="rJFvrDT2o2Mf9lYH1WT6-19" value="" style="shape=partialRectangle;overflow=hidden;connectable=0;fillColor=none;top=0;left=0;bottom=0;right=0;" vertex="1" parent="rJFvrDT2o2Mf9lYH1WT6-18">
          <mxGeometry width="30" height="30" as="geometry" />
        </mxCell>
        <mxCell id="rJFvrDT2o2Mf9lYH1WT6-20" value="`fullname` varchar(200) NOT NULL" style="shape=partialRectangle;overflow=hidden;connectable=0;fillColor=none;top=0;left=0;bottom=0;right=0;align=left;spacingLeft=6;" vertex="1" parent="rJFvrDT2o2Mf9lYH1WT6-18">
          <mxGeometry x="30" width="210" height="30" as="geometry" />
        </mxCell>
        <mxCell id="rJFvrDT2o2Mf9lYH1WT6-21" value="" style="shape=partialRectangle;collapsible=0;dropTarget=0;pointerEvents=0;fillColor=none;points=[[0,0.5],[1,0.5]];portConstraint=eastwest;top=0;left=0;right=0;bottom=0;" vertex="1" parent="rJFvrDT2o2Mf9lYH1WT6-14">
          <mxGeometry y="90" width="240" height="30" as="geometry" />
        </mxCell>
        <mxCell id="rJFvrDT2o2Mf9lYH1WT6-22" value="" style="shape=partialRectangle;overflow=hidden;connectable=0;fillColor=none;top=0;left=0;bottom=0;right=0;" vertex="1" parent="rJFvrDT2o2Mf9lYH1WT6-21">
          <mxGeometry width="30" height="30" as="geometry" />
        </mxCell>
        <mxCell id="rJFvrDT2o2Mf9lYH1WT6-23" value="`email` varchar(200) NOT NULL" style="shape=partialRectangle;overflow=hidden;connectable=0;fillColor=none;top=0;left=0;bottom=0;right=0;align=left;spacingLeft=6;" vertex="1" parent="rJFvrDT2o2Mf9lYH1WT6-21">
          <mxGeometry x="30" width="210" height="30" as="geometry" />
        </mxCell>
        <mxCell id="rJFvrDT2o2Mf9lYH1WT6-24" value="" style="shape=partialRectangle;collapsible=0;dropTarget=0;pointerEvents=0;fillColor=none;points=[[0,0.5],[1,0.5]];portConstraint=eastwest;top=0;left=0;right=0;bottom=0;" vertex="1" parent="rJFvrDT2o2Mf9lYH1WT6-14">
          <mxGeometry y="120" width="240" height="30" as="geometry" />
        </mxCell>
        <mxCell id="rJFvrDT2o2Mf9lYH1WT6-25" value="" style="shape=partialRectangle;overflow=hidden;connectable=0;fillColor=none;top=0;left=0;bottom=0;right=0;" vertex="1" parent="rJFvrDT2o2Mf9lYH1WT6-24">
          <mxGeometry width="30" height="30" as="geometry" />
        </mxCell>
        <mxCell id="rJFvrDT2o2Mf9lYH1WT6-26" value="`subject` varchar(200) NOT NULL" style="shape=partialRectangle;overflow=hidden;connectable=0;fillColor=none;top=0;left=0;bottom=0;right=0;align=left;spacingLeft=6;" vertex="1" parent="rJFvrDT2o2Mf9lYH1WT6-24">
          <mxGeometry x="30" width="210" height="30" as="geometry" />
        </mxCell>
        <mxCell id="rJFvrDT2o2Mf9lYH1WT6-27" value="" style="shape=partialRectangle;collapsible=0;dropTarget=0;pointerEvents=0;fillColor=none;points=[[0,0.5],[1,0.5]];portConstraint=eastwest;top=0;left=0;right=0;bottom=0;" vertex="1" parent="rJFvrDT2o2Mf9lYH1WT6-14">
          <mxGeometry y="150" width="240" height="30" as="geometry" />
        </mxCell>
        <mxCell id="rJFvrDT2o2Mf9lYH1WT6-28" value="" style="shape=partialRectangle;overflow=hidden;connectable=0;fillColor=none;top=0;left=0;bottom=0;right=0;" vertex="1" parent="rJFvrDT2o2Mf9lYH1WT6-27">
          <mxGeometry width="30" height="30" as="geometry" />
        </mxCell>
        <mxCell id="rJFvrDT2o2Mf9lYH1WT6-29" value="`message` varchar(500) NOT NULL" style="shape=partialRectangle;overflow=hidden;connectable=0;fillColor=none;top=0;left=0;bottom=0;right=0;align=left;spacingLeft=6;" vertex="1" parent="rJFvrDT2o2Mf9lYH1WT6-27">
          <mxGeometry x="30" width="210" height="30" as="geometry" />
        </mxCell>
        <mxCell id="rJFvrDT2o2Mf9lYH1WT6-30" value="`Customer`" style="shape=table;startSize=30;container=1;collapsible=1;childLayout=tableLayout;fixedRows=1;rowLines=0;fontStyle=1;align=center;resizeLast=1;" vertex="1" parent="1">
          <mxGeometry x="-160" y="40" width="250" height="340" as="geometry" />
        </mxCell>
        <mxCell id="rJFvrDT2o2Mf9lYH1WT6-31" value="" style="shape=partialRectangle;collapsible=0;dropTarget=0;pointerEvents=0;fillColor=none;points=[[0,0.5],[1,0.5]];portConstraint=eastwest;top=0;left=0;right=0;bottom=0;" vertex="1" parent="rJFvrDT2o2Mf9lYH1WT6-30">
          <mxGeometry y="30" width="250" height="30" as="geometry" />
        </mxCell>
        <mxCell id="rJFvrDT2o2Mf9lYH1WT6-32" value="" style="shape=partialRectangle;overflow=hidden;connectable=0;fillColor=none;top=0;left=0;bottom=0;right=0;" vertex="1" parent="rJFvrDT2o2Mf9lYH1WT6-31">
          <mxGeometry width="30" height="30" as="geometry" />
        </mxCell>
        <mxCell id="rJFvrDT2o2Mf9lYH1WT6-33" value="`customer_id` int(11) NOT NULL" style="shape=partialRectangle;overflow=hidden;connectable=0;fillColor=none;top=0;left=0;bottom=0;right=0;align=left;spacingLeft=6;" vertex="1" parent="rJFvrDT2o2Mf9lYH1WT6-31">
          <mxGeometry x="30" width="220" height="30" as="geometry" />
        </mxCell>
        <mxCell id="rJFvrDT2o2Mf9lYH1WT6-34" value="" style="shape=partialRectangle;collapsible=0;dropTarget=0;pointerEvents=0;fillColor=none;points=[[0,0.5],[1,0.5]];portConstraint=eastwest;top=0;left=0;right=0;bottom=0;" vertex="1" parent="rJFvrDT2o2Mf9lYH1WT6-30">
          <mxGeometry y="60" width="250" height="30" as="geometry" />
        </mxCell>
        <mxCell id="rJFvrDT2o2Mf9lYH1WT6-35" value="" style="shape=partialRectangle;overflow=hidden;connectable=0;fillColor=none;top=0;left=0;bottom=0;right=0;" vertex="1" parent="rJFvrDT2o2Mf9lYH1WT6-34">
          <mxGeometry width="30" height="30" as="geometry" />
        </mxCell>
        <mxCell id="rJFvrDT2o2Mf9lYH1WT6-36" value="`firstname` varchar(200) NOT NULL" style="shape=partialRectangle;overflow=hidden;connectable=0;fillColor=none;top=0;left=0;bottom=0;right=0;align=left;spacingLeft=6;" vertex="1" parent="rJFvrDT2o2Mf9lYH1WT6-34">
          <mxGeometry x="30" width="220" height="30" as="geometry" />
        </mxCell>
        <mxCell id="rJFvrDT2o2Mf9lYH1WT6-37" value="" style="shape=partialRectangle;collapsible=0;dropTarget=0;pointerEvents=0;fillColor=none;points=[[0,0.5],[1,0.5]];portConstraint=eastwest;top=0;left=0;right=0;bottom=0;" vertex="1" parent="rJFvrDT2o2Mf9lYH1WT6-30">
          <mxGeometry y="90" width="250" height="30" as="geometry" />
        </mxCell>
        <mxCell id="rJFvrDT2o2Mf9lYH1WT6-38" value="" style="shape=partialRectangle;overflow=hidden;connectable=0;fillColor=none;top=0;left=0;bottom=0;right=0;" vertex="1" parent="rJFvrDT2o2Mf9lYH1WT6-37">
          <mxGeometry width="30" height="30" as="geometry" />
        </mxCell>
        <mxCell id="rJFvrDT2o2Mf9lYH1WT6-39" value="`lastname` varchar(200) NOT NULL" style="shape=partialRectangle;overflow=hidden;connectable=0;fillColor=none;top=0;left=0;bottom=0;right=0;align=left;spacingLeft=6;" vertex="1" parent="rJFvrDT2o2Mf9lYH1WT6-37">
          <mxGeometry x="30" width="220" height="30" as="geometry" />
        </mxCell>
        <mxCell id="rJFvrDT2o2Mf9lYH1WT6-40" value="" style="shape=partialRectangle;collapsible=0;dropTarget=0;pointerEvents=0;fillColor=none;points=[[0,0.5],[1,0.5]];portConstraint=eastwest;top=0;left=0;right=0;bottom=0;" vertex="1" parent="rJFvrDT2o2Mf9lYH1WT6-30">
          <mxGeometry y="120" width="250" height="30" as="geometry" />
        </mxCell>
        <mxCell id="rJFvrDT2o2Mf9lYH1WT6-41" value="" style="shape=partialRectangle;overflow=hidden;connectable=0;fillColor=none;top=0;left=0;bottom=0;right=0;" vertex="1" parent="rJFvrDT2o2Mf9lYH1WT6-40">
          <mxGeometry width="30" height="30" as="geometry" />
        </mxCell>
        <mxCell id="rJFvrDT2o2Mf9lYH1WT6-42" value="`username` varchar(100) NOT NULL" style="shape=partialRectangle;overflow=hidden;connectable=0;fillColor=none;top=0;left=0;bottom=0;right=0;align=left;spacingLeft=6;" vertex="1" parent="rJFvrDT2o2Mf9lYH1WT6-40">
          <mxGeometry x="30" width="220" height="30" as="geometry" />
        </mxCell>
        <mxCell id="rJFvrDT2o2Mf9lYH1WT6-43" value="" style="shape=partialRectangle;collapsible=0;dropTarget=0;pointerEvents=0;fillColor=none;points=[[0,0.5],[1,0.5]];portConstraint=eastwest;top=0;left=0;right=0;bottom=0;" vertex="1" parent="rJFvrDT2o2Mf9lYH1WT6-30">
          <mxGeometry y="150" width="250" height="30" as="geometry" />
        </mxCell>
        <mxCell id="rJFvrDT2o2Mf9lYH1WT6-44" value="" style="shape=partialRectangle;overflow=hidden;connectable=0;fillColor=none;top=0;left=0;bottom=0;right=0;" vertex="1" parent="rJFvrDT2o2Mf9lYH1WT6-43">
          <mxGeometry width="30" height="30" as="geometry" />
        </mxCell>
        <mxCell id="rJFvrDT2o2Mf9lYH1WT6-45" value="`sex` varchar(100) NOT NULL" style="shape=partialRectangle;overflow=hidden;connectable=0;fillColor=none;top=0;left=0;bottom=0;right=0;align=left;spacingLeft=6;" vertex="1" parent="rJFvrDT2o2Mf9lYH1WT6-43">
          <mxGeometry x="30" width="220" height="30" as="geometry" />
        </mxCell>
        <mxCell id="rJFvrDT2o2Mf9lYH1WT6-46" value="" style="shape=partialRectangle;collapsible=0;dropTarget=0;pointerEvents=0;fillColor=none;points=[[0,0.5],[1,0.5]];portConstraint=eastwest;top=0;left=0;right=0;bottom=0;" vertex="1" parent="rJFvrDT2o2Mf9lYH1WT6-30">
          <mxGeometry y="180" width="250" height="30" as="geometry" />
        </mxCell>
        <mxCell id="rJFvrDT2o2Mf9lYH1WT6-47" value="" style="shape=partialRectangle;overflow=hidden;connectable=0;fillColor=none;top=0;left=0;bottom=0;right=0;" vertex="1" parent="rJFvrDT2o2Mf9lYH1WT6-46">
          <mxGeometry width="30" height="30" as="geometry" />
        </mxCell>
        <mxCell id="rJFvrDT2o2Mf9lYH1WT6-48" value="`dateofbirth` int(2) NOT NULL" style="shape=partialRectangle;overflow=hidden;connectable=0;fillColor=none;top=0;left=0;bottom=0;right=0;align=left;spacingLeft=6;" vertex="1" parent="rJFvrDT2o2Mf9lYH1WT6-46">
          <mxGeometry x="30" width="220" height="30" as="geometry" />
        </mxCell>
        <mxCell id="rJFvrDT2o2Mf9lYH1WT6-49" value="" style="shape=partialRectangle;collapsible=0;dropTarget=0;pointerEvents=0;fillColor=none;points=[[0,0.5],[1,0.5]];portConstraint=eastwest;top=0;left=0;right=0;bottom=0;" vertex="1" parent="rJFvrDT2o2Mf9lYH1WT6-30">
          <mxGeometry y="210" width="250" height="30" as="geometry" />
        </mxCell>
        <mxCell id="rJFvrDT2o2Mf9lYH1WT6-50" value="" style="shape=partialRectangle;overflow=hidden;connectable=0;fillColor=none;top=0;left=0;bottom=0;right=0;" vertex="1" parent="rJFvrDT2o2Mf9lYH1WT6-49">
          <mxGeometry width="30" height="30" as="geometry" />
        </mxCell>
        <mxCell id="rJFvrDT2o2Mf9lYH1WT6-51" value="`mobile` varchar(10) NOT NULL" style="shape=partialRectangle;overflow=hidden;connectable=0;fillColor=none;top=0;left=0;bottom=0;right=0;align=left;spacingLeft=6;" vertex="1" parent="rJFvrDT2o2Mf9lYH1WT6-49">
          <mxGeometry x="30" width="220" height="30" as="geometry" />
        </mxCell>
        <mxCell id="rJFvrDT2o2Mf9lYH1WT6-52" value="" style="shape=partialRectangle;collapsible=0;dropTarget=0;pointerEvents=0;fillColor=none;points=[[0,0.5],[1,0.5]];portConstraint=eastwest;top=0;left=0;right=0;bottom=0;" vertex="1" parent="rJFvrDT2o2Mf9lYH1WT6-30">
          <mxGeometry y="240" width="250" height="30" as="geometry" />
        </mxCell>
        <mxCell id="rJFvrDT2o2Mf9lYH1WT6-53" value="" style="shape=partialRectangle;overflow=hidden;connectable=0;fillColor=none;top=0;left=0;bottom=0;right=0;" vertex="1" parent="rJFvrDT2o2Mf9lYH1WT6-52">
          <mxGeometry width="30" height="30" as="geometry" />
        </mxCell>
        <mxCell id="rJFvrDT2o2Mf9lYH1WT6-54" value="`email` varchar(200) NOT NULL" style="shape=partialRectangle;overflow=hidden;connectable=0;fillColor=none;top=0;left=0;bottom=0;right=0;align=left;spacingLeft=6;" vertex="1" parent="rJFvrDT2o2Mf9lYH1WT6-52">
          <mxGeometry x="30" width="220" height="30" as="geometry" />
        </mxCell>
        <mxCell id="rJFvrDT2o2Mf9lYH1WT6-55" value="" style="shape=partialRectangle;collapsible=0;dropTarget=0;pointerEvents=0;fillColor=none;points=[[0,0.5],[1,0.5]];portConstraint=eastwest;top=0;left=0;right=0;bottom=0;" vertex="1" parent="rJFvrDT2o2Mf9lYH1WT6-30">
          <mxGeometry y="270" width="250" height="30" as="geometry" />
        </mxCell>
        <mxCell id="rJFvrDT2o2Mf9lYH1WT6-56" value="" style="shape=partialRectangle;overflow=hidden;connectable=0;fillColor=none;top=0;left=0;bottom=0;right=0;" vertex="1" parent="rJFvrDT2o2Mf9lYH1WT6-55">
          <mxGeometry width="30" height="30" as="geometry" />
        </mxCell>
        <mxCell id="rJFvrDT2o2Mf9lYH1WT6-57" value="`region` varchar(200) NOT NULL" style="shape=partialRectangle;overflow=hidden;connectable=0;fillColor=none;top=0;left=0;bottom=0;right=0;align=left;spacingLeft=6;" vertex="1" parent="rJFvrDT2o2Mf9lYH1WT6-55">
          <mxGeometry x="30" width="220" height="30" as="geometry" />
        </mxCell>
        <mxCell id="rJFvrDT2o2Mf9lYH1WT6-58" value="" style="shape=partialRectangle;collapsible=0;dropTarget=0;pointerEvents=0;fillColor=none;points=[[0,0.5],[1,0.5]];portConstraint=eastwest;top=0;left=0;right=0;bottom=0;" vertex="1" parent="rJFvrDT2o2Mf9lYH1WT6-30">
          <mxGeometry y="300" width="250" height="30" as="geometry" />
        </mxCell>
        <mxCell id="rJFvrDT2o2Mf9lYH1WT6-59" value="" style="shape=partialRectangle;overflow=hidden;connectable=0;fillColor=none;top=0;left=0;bottom=0;right=0;" vertex="1" parent="rJFvrDT2o2Mf9lYH1WT6-58">
          <mxGeometry width="30" height="30" as="geometry" />
        </mxCell>
        <mxCell id="rJFvrDT2o2Mf9lYH1WT6-60" value="`password` varchar(500) NOT NULL" style="shape=partialRectangle;overflow=hidden;connectable=0;fillColor=none;top=0;left=0;bottom=0;right=0;align=left;spacingLeft=6;" vertex="1" parent="rJFvrDT2o2Mf9lYH1WT6-58">
          <mxGeometry x="30" width="220" height="30" as="geometry" />
        </mxCell>
        <mxCell id="rJFvrDT2o2Mf9lYH1WT6-61" value="`Lawyer`" style="shape=table;startSize=30;container=1;collapsible=1;childLayout=tableLayout;fixedRows=1;rowLines=0;fontStyle=1;align=center;resizeLast=1;" vertex="1" parent="1">
          <mxGeometry x="130" y="40" width="250" height="370" as="geometry" />
        </mxCell>
        <mxCell id="rJFvrDT2o2Mf9lYH1WT6-62" value="" style="shape=partialRectangle;collapsible=0;dropTarget=0;pointerEvents=0;fillColor=none;points=[[0,0.5],[1,0.5]];portConstraint=eastwest;top=0;left=0;right=0;bottom=0;" vertex="1" parent="rJFvrDT2o2Mf9lYH1WT6-61">
          <mxGeometry y="30" width="250" height="30" as="geometry" />
        </mxCell>
        <mxCell id="rJFvrDT2o2Mf9lYH1WT6-63" value="" style="shape=partialRectangle;overflow=hidden;connectable=0;fillColor=none;top=0;left=0;bottom=0;right=0;" vertex="1" parent="rJFvrDT2o2Mf9lYH1WT6-62">
          <mxGeometry width="30" height="30" as="geometry" />
        </mxCell>
        <mxCell id="rJFvrDT2o2Mf9lYH1WT6-64" value="`lawyer_id` int(11) NOT NULL" style="shape=partialRectangle;overflow=hidden;connectable=0;fillColor=none;top=0;left=0;bottom=0;right=0;align=left;spacingLeft=6;" vertex="1" parent="rJFvrDT2o2Mf9lYH1WT6-62">
          <mxGeometry x="30" width="220" height="30" as="geometry" />
        </mxCell>
        <mxCell id="rJFvrDT2o2Mf9lYH1WT6-65" value="" style="shape=partialRectangle;collapsible=0;dropTarget=0;pointerEvents=0;fillColor=none;points=[[0,0.5],[1,0.5]];portConstraint=eastwest;top=0;left=0;right=0;bottom=0;" vertex="1" parent="rJFvrDT2o2Mf9lYH1WT6-61">
          <mxGeometry y="60" width="250" height="30" as="geometry" />
        </mxCell>
        <mxCell id="rJFvrDT2o2Mf9lYH1WT6-66" value="" style="shape=partialRectangle;overflow=hidden;connectable=0;fillColor=none;top=0;left=0;bottom=0;right=0;" vertex="1" parent="rJFvrDT2o2Mf9lYH1WT6-65">
          <mxGeometry width="30" height="30" as="geometry" />
        </mxCell>
        <mxCell id="rJFvrDT2o2Mf9lYH1WT6-67" value="`firstname` varchar(100) NOT NULL" style="shape=partialRectangle;overflow=hidden;connectable=0;fillColor=none;top=0;left=0;bottom=0;right=0;align=left;spacingLeft=6;" vertex="1" parent="rJFvrDT2o2Mf9lYH1WT6-65">
          <mxGeometry x="30" width="220" height="30" as="geometry" />
        </mxCell>
        <mxCell id="rJFvrDT2o2Mf9lYH1WT6-68" value="" style="shape=partialRectangle;collapsible=0;dropTarget=0;pointerEvents=0;fillColor=none;points=[[0,0.5],[1,0.5]];portConstraint=eastwest;top=0;left=0;right=0;bottom=0;" vertex="1" parent="rJFvrDT2o2Mf9lYH1WT6-61">
          <mxGeometry y="90" width="250" height="30" as="geometry" />
        </mxCell>
        <mxCell id="rJFvrDT2o2Mf9lYH1WT6-69" value="" style="shape=partialRectangle;overflow=hidden;connectable=0;fillColor=none;top=0;left=0;bottom=0;right=0;" vertex="1" parent="rJFvrDT2o2Mf9lYH1WT6-68">
          <mxGeometry width="30" height="30" as="geometry" />
        </mxCell>
        <mxCell id="rJFvrDT2o2Mf9lYH1WT6-70" value="`lastname` varchar(100) NOT NULL" style="shape=partialRectangle;overflow=hidden;connectable=0;fillColor=none;top=0;left=0;bottom=0;right=0;align=left;spacingLeft=6;" vertex="1" parent="rJFvrDT2o2Mf9lYH1WT6-68">
          <mxGeometry x="30" width="220" height="30" as="geometry" />
        </mxCell>
        <mxCell id="rJFvrDT2o2Mf9lYH1WT6-71" value="" style="shape=partialRectangle;collapsible=0;dropTarget=0;pointerEvents=0;fillColor=none;points=[[0,0.5],[1,0.5]];portConstraint=eastwest;top=0;left=0;right=0;bottom=0;" vertex="1" parent="rJFvrDT2o2Mf9lYH1WT6-61">
          <mxGeometry y="120" width="250" height="30" as="geometry" />
        </mxCell>
        <mxCell id="rJFvrDT2o2Mf9lYH1WT6-72" value="" style="shape=partialRectangle;overflow=hidden;connectable=0;fillColor=none;top=0;left=0;bottom=0;right=0;" vertex="1" parent="rJFvrDT2o2Mf9lYH1WT6-71">
          <mxGeometry width="30" height="30" as="geometry" />
        </mxCell>
        <mxCell id="rJFvrDT2o2Mf9lYH1WT6-73" value="`sex` varchar(100) NOT NULL" style="shape=partialRectangle;overflow=hidden;connectable=0;fillColor=none;top=0;left=0;bottom=0;right=0;align=left;spacingLeft=6;" vertex="1" parent="rJFvrDT2o2Mf9lYH1WT6-71">
          <mxGeometry x="30" width="220" height="30" as="geometry" />
        </mxCell>
        <mxCell id="rJFvrDT2o2Mf9lYH1WT6-74" value="" style="shape=partialRectangle;collapsible=0;dropTarget=0;pointerEvents=0;fillColor=none;points=[[0,0.5],[1,0.5]];portConstraint=eastwest;top=0;left=0;right=0;bottom=0;" vertex="1" parent="rJFvrDT2o2Mf9lYH1WT6-61">
          <mxGeometry y="150" width="250" height="30" as="geometry" />
        </mxCell>
        <mxCell id="rJFvrDT2o2Mf9lYH1WT6-75" value="" style="shape=partialRectangle;overflow=hidden;connectable=0;fillColor=none;top=0;left=0;bottom=0;right=0;" vertex="1" parent="rJFvrDT2o2Mf9lYH1WT6-74">
          <mxGeometry width="30" height="30" as="geometry" />
        </mxCell>
        <mxCell id="rJFvrDT2o2Mf9lYH1WT6-76" value="`status` varchar(100) NOT NULL" style="shape=partialRectangle;overflow=hidden;connectable=0;fillColor=none;top=0;left=0;bottom=0;right=0;align=left;spacingLeft=6;" vertex="1" parent="rJFvrDT2o2Mf9lYH1WT6-74">
          <mxGeometry x="30" width="220" height="30" as="geometry" />
        </mxCell>
        <mxCell id="rJFvrDT2o2Mf9lYH1WT6-77" value="" style="shape=partialRectangle;collapsible=0;dropTarget=0;pointerEvents=0;fillColor=none;points=[[0,0.5],[1,0.5]];portConstraint=eastwest;top=0;left=0;right=0;bottom=0;" vertex="1" parent="rJFvrDT2o2Mf9lYH1WT6-61">
          <mxGeometry y="180" width="250" height="30" as="geometry" />
        </mxCell>
        <mxCell id="rJFvrDT2o2Mf9lYH1WT6-78" value="" style="shape=partialRectangle;overflow=hidden;connectable=0;fillColor=none;top=0;left=0;bottom=0;right=0;" vertex="1" parent="rJFvrDT2o2Mf9lYH1WT6-77">
          <mxGeometry width="30" height="30" as="geometry" />
        </mxCell>
        <mxCell id="rJFvrDT2o2Mf9lYH1WT6-79" value="`email` varchar(200) NOT NULL" style="shape=partialRectangle;overflow=hidden;connectable=0;fillColor=none;top=0;left=0;bottom=0;right=0;align=left;spacingLeft=6;" vertex="1" parent="rJFvrDT2o2Mf9lYH1WT6-77">
          <mxGeometry x="30" width="220" height="30" as="geometry" />
        </mxCell>
        <mxCell id="rJFvrDT2o2Mf9lYH1WT6-80" value="" style="shape=partialRectangle;collapsible=0;dropTarget=0;pointerEvents=0;fillColor=none;points=[[0,0.5],[1,0.5]];portConstraint=eastwest;top=0;left=0;right=0;bottom=0;" vertex="1" parent="rJFvrDT2o2Mf9lYH1WT6-61">
          <mxGeometry y="210" width="250" height="30" as="geometry" />
        </mxCell>
        <mxCell id="rJFvrDT2o2Mf9lYH1WT6-81" value="" style="shape=partialRectangle;overflow=hidden;connectable=0;fillColor=none;top=0;left=0;bottom=0;right=0;" vertex="1" parent="rJFvrDT2o2Mf9lYH1WT6-80">
          <mxGeometry width="30" height="30" as="geometry" />
        </mxCell>
        <mxCell id="rJFvrDT2o2Mf9lYH1WT6-82" value="`mobile` varchar(10) NOT NULL" style="shape=partialRectangle;overflow=hidden;connectable=0;fillColor=none;top=0;left=0;bottom=0;right=0;align=left;spacingLeft=6;" vertex="1" parent="rJFvrDT2o2Mf9lYH1WT6-80">
          <mxGeometry x="30" width="220" height="30" as="geometry" />
        </mxCell>
        <mxCell id="rJFvrDT2o2Mf9lYH1WT6-83" value="" style="shape=partialRectangle;collapsible=0;dropTarget=0;pointerEvents=0;fillColor=none;points=[[0,0.5],[1,0.5]];portConstraint=eastwest;top=0;left=0;right=0;bottom=0;" vertex="1" parent="rJFvrDT2o2Mf9lYH1WT6-61">
          <mxGeometry y="240" width="250" height="30" as="geometry" />
        </mxCell>
        <mxCell id="rJFvrDT2o2Mf9lYH1WT6-84" value="" style="shape=partialRectangle;overflow=hidden;connectable=0;fillColor=none;top=0;left=0;bottom=0;right=0;" vertex="1" parent="rJFvrDT2o2Mf9lYH1WT6-83">
          <mxGeometry width="30" height="30" as="geometry" />
        </mxCell>
        <mxCell id="rJFvrDT2o2Mf9lYH1WT6-85" value="`region` varchar(200) NOT NULL" style="shape=partialRectangle;overflow=hidden;connectable=0;fillColor=none;top=0;left=0;bottom=0;right=0;align=left;spacingLeft=6;" vertex="1" parent="rJFvrDT2o2Mf9lYH1WT6-83">
          <mxGeometry x="30" width="220" height="30" as="geometry" />
        </mxCell>
        <mxCell id="rJFvrDT2o2Mf9lYH1WT6-86" value="" style="shape=partialRectangle;collapsible=0;dropTarget=0;pointerEvents=0;fillColor=none;points=[[0,0.5],[1,0.5]];portConstraint=eastwest;top=0;left=0;right=0;bottom=0;" vertex="1" parent="rJFvrDT2o2Mf9lYH1WT6-61">
          <mxGeometry y="270" width="250" height="30" as="geometry" />
        </mxCell>
        <mxCell id="rJFvrDT2o2Mf9lYH1WT6-87" value="" style="shape=partialRectangle;overflow=hidden;connectable=0;fillColor=none;top=0;left=0;bottom=0;right=0;" vertex="1" parent="rJFvrDT2o2Mf9lYH1WT6-86">
          <mxGeometry width="30" height="30" as="geometry" />
        </mxCell>
        <mxCell id="rJFvrDT2o2Mf9lYH1WT6-88" value="`about_me` varchar(500) NOT NULL" style="shape=partialRectangle;overflow=hidden;connectable=0;fillColor=none;top=0;left=0;bottom=0;right=0;align=left;spacingLeft=6;" vertex="1" parent="rJFvrDT2o2Mf9lYH1WT6-86">
          <mxGeometry x="30" width="220" height="30" as="geometry" />
        </mxCell>
        <mxCell id="rJFvrDT2o2Mf9lYH1WT6-89" value="" style="shape=partialRectangle;collapsible=0;dropTarget=0;pointerEvents=0;fillColor=none;points=[[0,0.5],[1,0.5]];portConstraint=eastwest;top=0;left=0;right=0;bottom=0;" vertex="1" parent="rJFvrDT2o2Mf9lYH1WT6-61">
          <mxGeometry y="300" width="250" height="30" as="geometry" />
        </mxCell>
        <mxCell id="rJFvrDT2o2Mf9lYH1WT6-90" value="" style="shape=partialRectangle;overflow=hidden;connectable=0;fillColor=none;top=0;left=0;bottom=0;right=0;" vertex="1" parent="rJFvrDT2o2Mf9lYH1WT6-89">
          <mxGeometry width="30" height="30" as="geometry" />
        </mxCell>
        <mxCell id="rJFvrDT2o2Mf9lYH1WT6-91" value="`image_link` varchar(200) NOT NULL" style="shape=partialRectangle;overflow=hidden;connectable=0;fillColor=none;top=0;left=0;bottom=0;right=0;align=left;spacingLeft=6;" vertex="1" parent="rJFvrDT2o2Mf9lYH1WT6-89">
          <mxGeometry x="30" width="220" height="30" as="geometry" />
        </mxCell>
        <mxCell id="rJFvrDT2o2Mf9lYH1WT6-92" value="" style="shape=partialRectangle;collapsible=0;dropTarget=0;pointerEvents=0;fillColor=none;points=[[0,0.5],[1,0.5]];portConstraint=eastwest;top=0;left=0;right=0;bottom=0;" vertex="1" parent="rJFvrDT2o2Mf9lYH1WT6-61">
          <mxGeometry y="330" width="250" height="30" as="geometry" />
        </mxCell>
        <mxCell id="rJFvrDT2o2Mf9lYH1WT6-93" value="" style="shape=partialRectangle;overflow=hidden;connectable=0;fillColor=none;top=0;left=0;bottom=0;right=0;" vertex="1" parent="rJFvrDT2o2Mf9lYH1WT6-92">
          <mxGeometry width="30" height="30" as="geometry" />
        </mxCell>
        <mxCell id="rJFvrDT2o2Mf9lYH1WT6-94" value="`password` varchar(100) NOT NULL" style="shape=partialRectangle;overflow=hidden;connectable=0;fillColor=none;top=0;left=0;bottom=0;right=0;align=left;spacingLeft=6;" vertex="1" parent="rJFvrDT2o2Mf9lYH1WT6-92">
          <mxGeometry x="30" width="220" height="30" as="geometry" />
        </mxCell>
        <mxCell id="rJFvrDT2o2Mf9lYH1WT6-95" value="`Messages`" style="shape=table;startSize=30;container=1;collapsible=1;childLayout=tableLayout;fixedRows=1;rowLines=0;fontStyle=1;align=center;resizeLast=1;" vertex="1" parent="1">
          <mxGeometry x="420" y="40" width="250" height="190" as="geometry" />
        </mxCell>
        <mxCell id="rJFvrDT2o2Mf9lYH1WT6-96" value="" style="shape=partialRectangle;collapsible=0;dropTarget=0;pointerEvents=0;fillColor=none;points=[[0,0.5],[1,0.5]];portConstraint=eastwest;top=0;left=0;right=0;bottom=0;" vertex="1" parent="rJFvrDT2o2Mf9lYH1WT6-95">
          <mxGeometry y="30" width="250" height="30" as="geometry" />
        </mxCell>
        <mxCell id="rJFvrDT2o2Mf9lYH1WT6-97" value="" style="shape=partialRectangle;overflow=hidden;connectable=0;fillColor=none;top=0;left=0;bottom=0;right=0;" vertex="1" parent="rJFvrDT2o2Mf9lYH1WT6-96">
          <mxGeometry width="30" height="30" as="geometry" />
        </mxCell>
        <mxCell id="rJFvrDT2o2Mf9lYH1WT6-98" value="`message_id` int(11) NOT NULL" style="shape=partialRectangle;overflow=hidden;connectable=0;fillColor=none;top=0;left=0;bottom=0;right=0;align=left;spacingLeft=6;" vertex="1" parent="rJFvrDT2o2Mf9lYH1WT6-96">
          <mxGeometry x="30" width="220" height="30" as="geometry" />
        </mxCell>
        <mxCell id="rJFvrDT2o2Mf9lYH1WT6-99" value="" style="shape=partialRectangle;collapsible=0;dropTarget=0;pointerEvents=0;fillColor=none;points=[[0,0.5],[1,0.5]];portConstraint=eastwest;top=0;left=0;right=0;bottom=0;" vertex="1" parent="rJFvrDT2o2Mf9lYH1WT6-95">
          <mxGeometry y="60" width="250" height="30" as="geometry" />
        </mxCell>
        <mxCell id="rJFvrDT2o2Mf9lYH1WT6-100" value="" style="shape=partialRectangle;overflow=hidden;connectable=0;fillColor=none;top=0;left=0;bottom=0;right=0;" vertex="1" parent="rJFvrDT2o2Mf9lYH1WT6-99">
          <mxGeometry width="30" height="30" as="geometry" />
        </mxCell>
        <mxCell id="rJFvrDT2o2Mf9lYH1WT6-101" value="`customer_id` int(11) NOT NULL" style="shape=partialRectangle;overflow=hidden;connectable=0;fillColor=none;top=0;left=0;bottom=0;right=0;align=left;spacingLeft=6;" vertex="1" parent="rJFvrDT2o2Mf9lYH1WT6-99">
          <mxGeometry x="30" width="220" height="30" as="geometry" />
        </mxCell>
        <mxCell id="rJFvrDT2o2Mf9lYH1WT6-102" value="" style="shape=partialRectangle;collapsible=0;dropTarget=0;pointerEvents=0;fillColor=none;points=[[0,0.5],[1,0.5]];portConstraint=eastwest;top=0;left=0;right=0;bottom=0;" vertex="1" parent="rJFvrDT2o2Mf9lYH1WT6-95">
          <mxGeometry y="90" width="250" height="30" as="geometry" />
        </mxCell>
        <mxCell id="rJFvrDT2o2Mf9lYH1WT6-103" value="" style="shape=partialRectangle;overflow=hidden;connectable=0;fillColor=none;top=0;left=0;bottom=0;right=0;" vertex="1" parent="rJFvrDT2o2Mf9lYH1WT6-102">
          <mxGeometry width="30" height="30" as="geometry" />
        </mxCell>
        <mxCell id="rJFvrDT2o2Mf9lYH1WT6-104" value="`body` varchar(500) NOT NULL" style="shape=partialRectangle;overflow=hidden;connectable=0;fillColor=none;top=0;left=0;bottom=0;right=0;align=left;spacingLeft=6;" vertex="1" parent="rJFvrDT2o2Mf9lYH1WT6-102">
          <mxGeometry x="30" width="220" height="30" as="geometry" />
        </mxCell>
        <mxCell id="rJFvrDT2o2Mf9lYH1WT6-105" value="" style="shape=partialRectangle;collapsible=0;dropTarget=0;pointerEvents=0;fillColor=none;points=[[0,0.5],[1,0.5]];portConstraint=eastwest;top=0;left=0;right=0;bottom=0;" vertex="1" parent="rJFvrDT2o2Mf9lYH1WT6-95">
          <mxGeometry y="120" width="250" height="30" as="geometry" />
        </mxCell>
        <mxCell id="rJFvrDT2o2Mf9lYH1WT6-106" value="" style="shape=partialRectangle;overflow=hidden;connectable=0;fillColor=none;top=0;left=0;bottom=0;right=0;" vertex="1" parent="rJFvrDT2o2Mf9lYH1WT6-105">
          <mxGeometry width="30" height="30" as="geometry" />
        </mxCell>
        <mxCell id="rJFvrDT2o2Mf9lYH1WT6-107" value="`sent_date` varchar(100) NOT NULL" style="shape=partialRectangle;overflow=hidden;connectable=0;fillColor=none;top=0;left=0;bottom=0;right=0;align=left;spacingLeft=6;" vertex="1" parent="rJFvrDT2o2Mf9lYH1WT6-105">
          <mxGeometry x="30" width="220" height="30" as="geometry" />
        </mxCell>
        <mxCell id="rJFvrDT2o2Mf9lYH1WT6-108" value="" style="shape=partialRectangle;collapsible=0;dropTarget=0;pointerEvents=0;fillColor=none;points=[[0,0.5],[1,0.5]];portConstraint=eastwest;top=0;left=0;right=0;bottom=0;" vertex="1" parent="rJFvrDT2o2Mf9lYH1WT6-95">
          <mxGeometry y="150" width="250" height="30" as="geometry" />
        </mxCell>
        <mxCell id="rJFvrDT2o2Mf9lYH1WT6-109" value="" style="shape=partialRectangle;overflow=hidden;connectable=0;fillColor=none;top=0;left=0;bottom=0;right=0;" vertex="1" parent="rJFvrDT2o2Mf9lYH1WT6-108">
          <mxGeometry width="30" height="30" as="geometry" />
        </mxCell>
        <mxCell id="rJFvrDT2o2Mf9lYH1WT6-110" value="`sent_time` time NOT NULL" style="shape=partialRectangle;overflow=hidden;connectable=0;fillColor=none;top=0;left=0;bottom=0;right=0;align=left;spacingLeft=6;" vertex="1" parent="rJFvrDT2o2Mf9lYH1WT6-108">
          <mxGeometry x="30" width="220" height="30" as="geometry" />
        </mxCell>
        <mxCell id="rJFvrDT2o2Mf9lYH1WT6-111" value="`Private_message`" style="shape=table;startSize=30;container=1;collapsible=1;childLayout=tableLayout;fixedRows=1;rowLines=0;fontStyle=1;align=center;resizeLast=1;" vertex="1" parent="1">
          <mxGeometry x="710" y="40" width="250" height="220" as="geometry" />
        </mxCell>
        <mxCell id="rJFvrDT2o2Mf9lYH1WT6-112" value="" style="shape=partialRectangle;collapsible=0;dropTarget=0;pointerEvents=0;fillColor=none;points=[[0,0.5],[1,0.5]];portConstraint=eastwest;top=0;left=0;right=0;bottom=0;" vertex="1" parent="rJFvrDT2o2Mf9lYH1WT6-111">
          <mxGeometry y="30" width="250" height="30" as="geometry" />
        </mxCell>
        <mxCell id="rJFvrDT2o2Mf9lYH1WT6-113" value="" style="shape=partialRectangle;overflow=hidden;connectable=0;fillColor=none;top=0;left=0;bottom=0;right=0;" vertex="1" parent="rJFvrDT2o2Mf9lYH1WT6-112">
          <mxGeometry width="30" height="30" as="geometry" />
        </mxCell>
        <mxCell id="rJFvrDT2o2Mf9lYH1WT6-114" value="`message_id` int(11) NOT NULL" style="shape=partialRectangle;overflow=hidden;connectable=0;fillColor=none;top=0;left=0;bottom=0;right=0;align=left;spacingLeft=6;" vertex="1" parent="rJFvrDT2o2Mf9lYH1WT6-112">
          <mxGeometry x="30" width="220" height="30" as="geometry" />
        </mxCell>
        <mxCell id="rJFvrDT2o2Mf9lYH1WT6-115" value="" style="shape=partialRectangle;collapsible=0;dropTarget=0;pointerEvents=0;fillColor=none;points=[[0,0.5],[1,0.5]];portConstraint=eastwest;top=0;left=0;right=0;bottom=0;" vertex="1" parent="rJFvrDT2o2Mf9lYH1WT6-111">
          <mxGeometry y="60" width="250" height="30" as="geometry" />
        </mxCell>
        <mxCell id="rJFvrDT2o2Mf9lYH1WT6-116" value="" style="shape=partialRectangle;overflow=hidden;connectable=0;fillColor=none;top=0;left=0;bottom=0;right=0;" vertex="1" parent="rJFvrDT2o2Mf9lYH1WT6-115">
          <mxGeometry width="30" height="30" as="geometry" />
        </mxCell>
        <mxCell id="rJFvrDT2o2Mf9lYH1WT6-117" value="`customer_id` int(11) DEFAULT NULL" style="shape=partialRectangle;overflow=hidden;connectable=0;fillColor=none;top=0;left=0;bottom=0;right=0;align=left;spacingLeft=6;" vertex="1" parent="rJFvrDT2o2Mf9lYH1WT6-115">
          <mxGeometry x="30" width="220" height="30" as="geometry" />
        </mxCell>
        <mxCell id="rJFvrDT2o2Mf9lYH1WT6-118" value="" style="shape=partialRectangle;collapsible=0;dropTarget=0;pointerEvents=0;fillColor=none;points=[[0,0.5],[1,0.5]];portConstraint=eastwest;top=0;left=0;right=0;bottom=0;" vertex="1" parent="rJFvrDT2o2Mf9lYH1WT6-111">
          <mxGeometry y="90" width="250" height="30" as="geometry" />
        </mxCell>
        <mxCell id="rJFvrDT2o2Mf9lYH1WT6-119" value="" style="shape=partialRectangle;overflow=hidden;connectable=0;fillColor=none;top=0;left=0;bottom=0;right=0;" vertex="1" parent="rJFvrDT2o2Mf9lYH1WT6-118">
          <mxGeometry width="30" height="30" as="geometry" />
        </mxCell>
        <mxCell id="rJFvrDT2o2Mf9lYH1WT6-120" value="`lawyer_id` int(11) DEFAULT NULL" style="shape=partialRectangle;overflow=hidden;connectable=0;fillColor=none;top=0;left=0;bottom=0;right=0;align=left;spacingLeft=6;" vertex="1" parent="rJFvrDT2o2Mf9lYH1WT6-118">
          <mxGeometry x="30" width="220" height="30" as="geometry" />
        </mxCell>
        <mxCell id="rJFvrDT2o2Mf9lYH1WT6-121" value="" style="shape=partialRectangle;collapsible=0;dropTarget=0;pointerEvents=0;fillColor=none;points=[[0,0.5],[1,0.5]];portConstraint=eastwest;top=0;left=0;right=0;bottom=0;" vertex="1" parent="rJFvrDT2o2Mf9lYH1WT6-111">
          <mxGeometry y="120" width="250" height="30" as="geometry" />
        </mxCell>
        <mxCell id="rJFvrDT2o2Mf9lYH1WT6-122" value="" style="shape=partialRectangle;overflow=hidden;connectable=0;fillColor=none;top=0;left=0;bottom=0;right=0;" vertex="1" parent="rJFvrDT2o2Mf9lYH1WT6-121">
          <mxGeometry width="30" height="30" as="geometry" />
        </mxCell>
        <mxCell id="rJFvrDT2o2Mf9lYH1WT6-123" value="`body` varchar(500) NOT NULL" style="shape=partialRectangle;overflow=hidden;connectable=0;fillColor=none;top=0;left=0;bottom=0;right=0;align=left;spacingLeft=6;" vertex="1" parent="rJFvrDT2o2Mf9lYH1WT6-121">
          <mxGeometry x="30" width="220" height="30" as="geometry" />
        </mxCell>
        <mxCell id="rJFvrDT2o2Mf9lYH1WT6-124" value="" style="shape=partialRectangle;collapsible=0;dropTarget=0;pointerEvents=0;fillColor=none;points=[[0,0.5],[1,0.5]];portConstraint=eastwest;top=0;left=0;right=0;bottom=0;" vertex="1" parent="rJFvrDT2o2Mf9lYH1WT6-111">
          <mxGeometry y="150" width="250" height="30" as="geometry" />
        </mxCell>
        <mxCell id="rJFvrDT2o2Mf9lYH1WT6-125" value="" style="shape=partialRectangle;overflow=hidden;connectable=0;fillColor=none;top=0;left=0;bottom=0;right=0;" vertex="1" parent="rJFvrDT2o2Mf9lYH1WT6-124">
          <mxGeometry width="30" height="30" as="geometry" />
        </mxCell>
        <mxCell id="rJFvrDT2o2Mf9lYH1WT6-126" value="`sent_date` varchar(100) NOT NULL" style="shape=partialRectangle;overflow=hidden;connectable=0;fillColor=none;top=0;left=0;bottom=0;right=0;align=left;spacingLeft=6;" vertex="1" parent="rJFvrDT2o2Mf9lYH1WT6-124">
          <mxGeometry x="30" width="220" height="30" as="geometry" />
        </mxCell>
        <mxCell id="rJFvrDT2o2Mf9lYH1WT6-127" value="" style="shape=partialRectangle;collapsible=0;dropTarget=0;pointerEvents=0;fillColor=none;points=[[0,0.5],[1,0.5]];portConstraint=eastwest;top=0;left=0;right=0;bottom=0;" vertex="1" parent="rJFvrDT2o2Mf9lYH1WT6-111">
          <mxGeometry y="180" width="250" height="30" as="geometry" />
        </mxCell>
        <mxCell id="rJFvrDT2o2Mf9lYH1WT6-128" value="" style="shape=partialRectangle;overflow=hidden;connectable=0;fillColor=none;top=0;left=0;bottom=0;right=0;" vertex="1" parent="rJFvrDT2o2Mf9lYH1WT6-127">
          <mxGeometry width="30" height="30" as="geometry" />
        </mxCell>
        <mxCell id="rJFvrDT2o2Mf9lYH1WT6-129" value="`sent_time` time NOT NULL" style="shape=partialRectangle;overflow=hidden;connectable=0;fillColor=none;top=0;left=0;bottom=0;right=0;align=left;spacingLeft=6;" vertex="1" parent="rJFvrDT2o2Mf9lYH1WT6-127">
          <mxGeometry x="30" width="220" height="30" as="geometry" />
        </mxCell>
        <mxCell id="rJFvrDT2o2Mf9lYH1WT6-130" value="`Replied_message`" style="shape=table;startSize=30;container=1;collapsible=1;childLayout=tableLayout;fixedRows=1;rowLines=0;fontStyle=1;align=center;resizeLast=1;" vertex="1" parent="1">
          <mxGeometry x="1000" y="40" width="250" height="220" as="geometry" />
        </mxCell>
        <mxCell id="rJFvrDT2o2Mf9lYH1WT6-131" value="" style="shape=partialRectangle;collapsible=0;dropTarget=0;pointerEvents=0;fillColor=none;points=[[0,0.5],[1,0.5]];portConstraint=eastwest;top=0;left=0;right=0;bottom=0;" vertex="1" parent="rJFvrDT2o2Mf9lYH1WT6-130">
          <mxGeometry y="30" width="250" height="30" as="geometry" />
        </mxCell>
        <mxCell id="rJFvrDT2o2Mf9lYH1WT6-132" value="" style="shape=partialRectangle;overflow=hidden;connectable=0;fillColor=none;top=0;left=0;bottom=0;right=0;" vertex="1" parent="rJFvrDT2o2Mf9lYH1WT6-131">
          <mxGeometry width="30" height="30" as="geometry" />
        </mxCell>
        <mxCell id="rJFvrDT2o2Mf9lYH1WT6-133" value="`reply_id` int(11) NOT NULL" style="shape=partialRectangle;overflow=hidden;connectable=0;fillColor=none;top=0;left=0;bottom=0;right=0;align=left;spacingLeft=6;" vertex="1" parent="rJFvrDT2o2Mf9lYH1WT6-131">
          <mxGeometry x="30" width="220" height="30" as="geometry" />
        </mxCell>
        <mxCell id="rJFvrDT2o2Mf9lYH1WT6-134" value="" style="shape=partialRectangle;collapsible=0;dropTarget=0;pointerEvents=0;fillColor=none;points=[[0,0.5],[1,0.5]];portConstraint=eastwest;top=0;left=0;right=0;bottom=0;" vertex="1" parent="rJFvrDT2o2Mf9lYH1WT6-130">
          <mxGeometry y="60" width="250" height="30" as="geometry" />
        </mxCell>
        <mxCell id="rJFvrDT2o2Mf9lYH1WT6-135" value="" style="shape=partialRectangle;overflow=hidden;connectable=0;fillColor=none;top=0;left=0;bottom=0;right=0;" vertex="1" parent="rJFvrDT2o2Mf9lYH1WT6-134">
          <mxGeometry width="30" height="30" as="geometry" />
        </mxCell>
        <mxCell id="rJFvrDT2o2Mf9lYH1WT6-136" value="`message_id` int(11) NOT NULL" style="shape=partialRectangle;overflow=hidden;connectable=0;fillColor=none;top=0;left=0;bottom=0;right=0;align=left;spacingLeft=6;" vertex="1" parent="rJFvrDT2o2Mf9lYH1WT6-134">
          <mxGeometry x="30" width="220" height="30" as="geometry" />
        </mxCell>
        <mxCell id="rJFvrDT2o2Mf9lYH1WT6-137" value="" style="shape=partialRectangle;collapsible=0;dropTarget=0;pointerEvents=0;fillColor=none;points=[[0,0.5],[1,0.5]];portConstraint=eastwest;top=0;left=0;right=0;bottom=0;" vertex="1" parent="rJFvrDT2o2Mf9lYH1WT6-130">
          <mxGeometry y="90" width="250" height="30" as="geometry" />
        </mxCell>
        <mxCell id="rJFvrDT2o2Mf9lYH1WT6-138" value="" style="shape=partialRectangle;overflow=hidden;connectable=0;fillColor=none;top=0;left=0;bottom=0;right=0;" vertex="1" parent="rJFvrDT2o2Mf9lYH1WT6-137">
          <mxGeometry width="30" height="30" as="geometry" />
        </mxCell>
        <mxCell id="rJFvrDT2o2Mf9lYH1WT6-139" value="`sender_id` int(11) NOT NULL" style="shape=partialRectangle;overflow=hidden;connectable=0;fillColor=none;top=0;left=0;bottom=0;right=0;align=left;spacingLeft=6;" vertex="1" parent="rJFvrDT2o2Mf9lYH1WT6-137">
          <mxGeometry x="30" width="220" height="30" as="geometry" />
        </mxCell>
        <mxCell id="rJFvrDT2o2Mf9lYH1WT6-140" value="" style="shape=partialRectangle;collapsible=0;dropTarget=0;pointerEvents=0;fillColor=none;points=[[0,0.5],[1,0.5]];portConstraint=eastwest;top=0;left=0;right=0;bottom=0;" vertex="1" parent="rJFvrDT2o2Mf9lYH1WT6-130">
          <mxGeometry y="120" width="250" height="30" as="geometry" />
        </mxCell>
        <mxCell id="rJFvrDT2o2Mf9lYH1WT6-141" value="" style="shape=partialRectangle;overflow=hidden;connectable=0;fillColor=none;top=0;left=0;bottom=0;right=0;" vertex="1" parent="rJFvrDT2o2Mf9lYH1WT6-140">
          <mxGeometry width="30" height="30" as="geometry" />
        </mxCell>
        <mxCell id="rJFvrDT2o2Mf9lYH1WT6-142" value="`body` varchar(500) NOT NULL" style="shape=partialRectangle;overflow=hidden;connectable=0;fillColor=none;top=0;left=0;bottom=0;right=0;align=left;spacingLeft=6;" vertex="1" parent="rJFvrDT2o2Mf9lYH1WT6-140">
          <mxGeometry x="30" width="220" height="30" as="geometry" />
        </mxCell>
        <mxCell id="rJFvrDT2o2Mf9lYH1WT6-143" value="" style="shape=partialRectangle;collapsible=0;dropTarget=0;pointerEvents=0;fillColor=none;points=[[0,0.5],[1,0.5]];portConstraint=eastwest;top=0;left=0;right=0;bottom=0;" vertex="1" parent="rJFvrDT2o2Mf9lYH1WT6-130">
          <mxGeometry y="150" width="250" height="30" as="geometry" />
        </mxCell>
        <mxCell id="rJFvrDT2o2Mf9lYH1WT6-144" value="" style="shape=partialRectangle;overflow=hidden;connectable=0;fillColor=none;top=0;left=0;bottom=0;right=0;" vertex="1" parent="rJFvrDT2o2Mf9lYH1WT6-143">
          <mxGeometry width="30" height="30" as="geometry" />
        </mxCell>
        <mxCell id="rJFvrDT2o2Mf9lYH1WT6-145" value="`sent_date` varchar(500) NOT NULL" style="shape=partialRectangle;overflow=hidden;connectable=0;fillColor=none;top=0;left=0;bottom=0;right=0;align=left;spacingLeft=6;" vertex="1" parent="rJFvrDT2o2Mf9lYH1WT6-143">
          <mxGeometry x="30" width="220" height="30" as="geometry" />
        </mxCell>
        <mxCell id="rJFvrDT2o2Mf9lYH1WT6-146" value="" style="shape=partialRectangle;collapsible=0;dropTarget=0;pointerEvents=0;fillColor=none;points=[[0,0.5],[1,0.5]];portConstraint=eastwest;top=0;left=0;right=0;bottom=0;" vertex="1" parent="rJFvrDT2o2Mf9lYH1WT6-130">
          <mxGeometry y="180" width="250" height="30" as="geometry" />
        </mxCell>
        <mxCell id="rJFvrDT2o2Mf9lYH1WT6-147" value="" style="shape=partialRectangle;overflow=hidden;connectable=0;fillColor=none;top=0;left=0;bottom=0;right=0;" vertex="1" parent="rJFvrDT2o2Mf9lYH1WT6-146">
          <mxGeometry width="30" height="30" as="geometry" />
        </mxCell>
        <mxCell id="rJFvrDT2o2Mf9lYH1WT6-148" value="`sent_time` time NOT NULL" style="shape=partialRectangle;overflow=hidden;connectable=0;fillColor=none;top=0;left=0;bottom=0;right=0;align=left;spacingLeft=6;" vertex="1" parent="rJFvrDT2o2Mf9lYH1WT6-146">
          <mxGeometry x="30" width="220" height="30" as="geometry" />
        </mxCell>
        <mxCell id="rJFvrDT2o2Mf9lYH1WT6-149" value="`testimonial`" style="shape=table;startSize=30;container=1;collapsible=1;childLayout=tableLayout;fixedRows=1;rowLines=0;fontStyle=1;align=center;resizeLast=1;" vertex="1" parent="1">
          <mxGeometry x="1290" y="40" width="270" height="250" as="geometry" />
        </mxCell>
        <mxCell id="rJFvrDT2o2Mf9lYH1WT6-150" value="" style="shape=partialRectangle;collapsible=0;dropTarget=0;pointerEvents=0;fillColor=none;points=[[0,0.5],[1,0.5]];portConstraint=eastwest;top=0;left=0;right=0;bottom=0;" vertex="1" parent="rJFvrDT2o2Mf9lYH1WT6-149">
          <mxGeometry y="30" width="270" height="30" as="geometry" />
        </mxCell>
        <mxCell id="rJFvrDT2o2Mf9lYH1WT6-151" value="" style="shape=partialRectangle;overflow=hidden;connectable=0;fillColor=none;top=0;left=0;bottom=0;right=0;" vertex="1" parent="rJFvrDT2o2Mf9lYH1WT6-150">
          <mxGeometry width="30" height="30" as="geometry" />
        </mxCell>
        <mxCell id="rJFvrDT2o2Mf9lYH1WT6-152" value="`review_id` int(11) NOT NULL" style="shape=partialRectangle;overflow=hidden;connectable=0;fillColor=none;top=0;left=0;bottom=0;right=0;align=left;spacingLeft=6;" vertex="1" parent="rJFvrDT2o2Mf9lYH1WT6-150">
          <mxGeometry x="30" width="240" height="30" as="geometry" />
        </mxCell>
        <mxCell id="rJFvrDT2o2Mf9lYH1WT6-153" value="" style="shape=partialRectangle;collapsible=0;dropTarget=0;pointerEvents=0;fillColor=none;points=[[0,0.5],[1,0.5]];portConstraint=eastwest;top=0;left=0;right=0;bottom=0;" vertex="1" parent="rJFvrDT2o2Mf9lYH1WT6-149">
          <mxGeometry y="60" width="270" height="30" as="geometry" />
        </mxCell>
        <mxCell id="rJFvrDT2o2Mf9lYH1WT6-154" value="" style="shape=partialRectangle;overflow=hidden;connectable=0;fillColor=none;top=0;left=0;bottom=0;right=0;" vertex="1" parent="rJFvrDT2o2Mf9lYH1WT6-153">
          <mxGeometry width="30" height="30" as="geometry" />
        </mxCell>
        <mxCell id="rJFvrDT2o2Mf9lYH1WT6-155" value="`firstname` varchar(200) NOT NULL" style="shape=partialRectangle;overflow=hidden;connectable=0;fillColor=none;top=0;left=0;bottom=0;right=0;align=left;spacingLeft=6;" vertex="1" parent="rJFvrDT2o2Mf9lYH1WT6-153">
          <mxGeometry x="30" width="240" height="30" as="geometry" />
        </mxCell>
        <mxCell id="rJFvrDT2o2Mf9lYH1WT6-156" value="" style="shape=partialRectangle;collapsible=0;dropTarget=0;pointerEvents=0;fillColor=none;points=[[0,0.5],[1,0.5]];portConstraint=eastwest;top=0;left=0;right=0;bottom=0;" vertex="1" parent="rJFvrDT2o2Mf9lYH1WT6-149">
          <mxGeometry y="90" width="270" height="30" as="geometry" />
        </mxCell>
        <mxCell id="rJFvrDT2o2Mf9lYH1WT6-157" value="" style="shape=partialRectangle;overflow=hidden;connectable=0;fillColor=none;top=0;left=0;bottom=0;right=0;" vertex="1" parent="rJFvrDT2o2Mf9lYH1WT6-156">
          <mxGeometry width="30" height="30" as="geometry" />
        </mxCell>
        <mxCell id="rJFvrDT2o2Mf9lYH1WT6-158" value="`lastname` varchar(200) NOT NULL" style="shape=partialRectangle;overflow=hidden;connectable=0;fillColor=none;top=0;left=0;bottom=0;right=0;align=left;spacingLeft=6;" vertex="1" parent="rJFvrDT2o2Mf9lYH1WT6-156">
          <mxGeometry x="30" width="240" height="30" as="geometry" />
        </mxCell>
        <mxCell id="rJFvrDT2o2Mf9lYH1WT6-159" value="" style="shape=partialRectangle;collapsible=0;dropTarget=0;pointerEvents=0;fillColor=none;points=[[0,0.5],[1,0.5]];portConstraint=eastwest;top=0;left=0;right=0;bottom=0;" vertex="1" parent="rJFvrDT2o2Mf9lYH1WT6-149">
          <mxGeometry y="120" width="270" height="30" as="geometry" />
        </mxCell>
        <mxCell id="rJFvrDT2o2Mf9lYH1WT6-160" value="" style="shape=partialRectangle;overflow=hidden;connectable=0;fillColor=none;top=0;left=0;bottom=0;right=0;" vertex="1" parent="rJFvrDT2o2Mf9lYH1WT6-159">
          <mxGeometry width="30" height="30" as="geometry" />
        </mxCell>
        <mxCell id="rJFvrDT2o2Mf9lYH1WT6-161" value="`service_rating` varchar(200) NOT NULL" style="shape=partialRectangle;overflow=hidden;connectable=0;fillColor=none;top=0;left=0;bottom=0;right=0;align=left;spacingLeft=6;" vertex="1" parent="rJFvrDT2o2Mf9lYH1WT6-159">
          <mxGeometry x="30" width="240" height="30" as="geometry" />
        </mxCell>
        <mxCell id="rJFvrDT2o2Mf9lYH1WT6-162" value="" style="shape=partialRectangle;collapsible=0;dropTarget=0;pointerEvents=0;fillColor=none;points=[[0,0.5],[1,0.5]];portConstraint=eastwest;top=0;left=0;right=0;bottom=0;" vertex="1" parent="rJFvrDT2o2Mf9lYH1WT6-149">
          <mxGeometry y="150" width="270" height="30" as="geometry" />
        </mxCell>
        <mxCell id="rJFvrDT2o2Mf9lYH1WT6-163" value="" style="shape=partialRectangle;overflow=hidden;connectable=0;fillColor=none;top=0;left=0;bottom=0;right=0;" vertex="1" parent="rJFvrDT2o2Mf9lYH1WT6-162">
          <mxGeometry width="30" height="30" as="geometry" />
        </mxCell>
        <mxCell id="rJFvrDT2o2Mf9lYH1WT6-164" value="`review` varchar(500) NOT NULL" style="shape=partialRectangle;overflow=hidden;connectable=0;fillColor=none;top=0;left=0;bottom=0;right=0;align=left;spacingLeft=6;" vertex="1" parent="rJFvrDT2o2Mf9lYH1WT6-162">
          <mxGeometry x="30" width="240" height="30" as="geometry" />
        </mxCell>
        <mxCell id="rJFvrDT2o2Mf9lYH1WT6-165" value="" style="shape=partialRectangle;collapsible=0;dropTarget=0;pointerEvents=0;fillColor=none;points=[[0,0.5],[1,0.5]];portConstraint=eastwest;top=0;left=0;right=0;bottom=0;" vertex="1" parent="rJFvrDT2o2Mf9lYH1WT6-149">
          <mxGeometry y="180" width="270" height="30" as="geometry" />
        </mxCell>
        <mxCell id="rJFvrDT2o2Mf9lYH1WT6-166" value="" style="shape=partialRectangle;overflow=hidden;connectable=0;fillColor=none;top=0;left=0;bottom=0;right=0;" vertex="1" parent="rJFvrDT2o2Mf9lYH1WT6-165">
          <mxGeometry width="30" height="30" as="geometry" />
        </mxCell>
        <mxCell id="rJFvrDT2o2Mf9lYH1WT6-167" value="`sent_date` varchar(100) NOT NULL" style="shape=partialRectangle;overflow=hidden;connectable=0;fillColor=none;top=0;left=0;bottom=0;right=0;align=left;spacingLeft=6;" vertex="1" parent="rJFvrDT2o2Mf9lYH1WT6-165">
          <mxGeometry x="30" width="240" height="30" as="geometry" />
        </mxCell>
        <mxCell id="rJFvrDT2o2Mf9lYH1WT6-168" value="" style="shape=partialRectangle;collapsible=0;dropTarget=0;pointerEvents=0;fillColor=none;points=[[0,0.5],[1,0.5]];portConstraint=eastwest;top=0;left=0;right=0;bottom=0;" vertex="1" parent="rJFvrDT2o2Mf9lYH1WT6-149">
          <mxGeometry y="210" width="270" height="30" as="geometry" />
        </mxCell>
        <mxCell id="rJFvrDT2o2Mf9lYH1WT6-169" value="" style="shape=partialRectangle;overflow=hidden;connectable=0;fillColor=none;top=0;left=0;bottom=0;right=0;" vertex="1" parent="rJFvrDT2o2Mf9lYH1WT6-168">
          <mxGeometry width="30" height="30" as="geometry" />
        </mxCell>
        <mxCell id="rJFvrDT2o2Mf9lYH1WT6-170" value="`sent_time` time NOT NULL" style="shape=partialRectangle;overflow=hidden;connectable=0;fillColor=none;top=0;left=0;bottom=0;right=0;align=left;spacingLeft=6;" vertex="1" parent="rJFvrDT2o2Mf9lYH1WT6-168">
          <mxGeometry x="30" width="240" height="30" as="geometry" />
        </mxCell>
      </root>
    </mxGraphModel>
  </diagram>
</mxfile>
